<svg xmlns="http://www.w3.org/2000/svg" viewBox="0 0 374.01 394.77"><defs><style>.cls-1{fill:#fff;}</style></defs><title>Asset 8</title><g id="Layer_2" data-name="Layer 2"><g id="Layer_1-2" data-name="Layer 1"><path d="M262.07,353.45c-15.53,31.08-57.61,35.23-90.16,41.3-202,2.83-227.55-292.11-68.37-373.44,88-49.7,205.93-7.88,254.92,77.91C397.81,187.06,361.32,329.3,262.07,353.45ZM97.38,350.56l.39-.26c-17.26-27.59,14.76-51.71,41.13-58,93-5.67,184.15-25.14,192-125.84,9.79-70.71-45.64-102-97.86-125.27C38.28,2.27-1.61,239.58,97.38,350.56ZM253,345.11c19,6.69,28.83-3.14,44.74-13.72,64.58-39.75,73.93-123.89,69.48-194.55C311.89-47.35,59.53-33.64,12.47,148.05-7.63,216.66,12.67,291,52,339.8c79.87,96.34,218.74,33.22,204.44,8-11.89,3.44-9.65,21.82-23.73,22.4,3.94-6.09,22.34-26.9,14.26-35.13-7.44,4.34-13.21,40.74-25,35.5,9.15-8.48,19.3-34.85,9.76-42.39-1.54,1.11-10.14,51.41-12.14,29.6,1.64-8,6.72-17.24.45-25.27-5.93,10.18-3.77,29-21.71,33.42-18.35,3.47,16.38-27.15-4.56-17.16-74.71,75.69-134.95-31.1-149.58-91.06-12-58.95-2.7-121.07,29.24-167,45.26-70.11,153.1-74.79,214.2-22.24,58.27,35.22,56.7,92.85,38.76,144.21-68.67,123.05-217.5,44.26-228,122.58,9.85,51.76,69.71,38.84,93.92,8.81,15.22-5.93,17.45,9.21,5.78,17.55,22.06-8.47,5.56-39.63,26.87-29.92,1.61-10.51,16.08-5.88,15.15,4.75C246.49,328.56,257.25,335,253,345.11Z"/><path class="cls-1" d="M253,345.11c4.29-8.07-5.5-17.63-12.89-8.66,1.44-7.76-12.39-17.43-15.15-4.75C206,321.3,216,358.49,198.09,361.62c16.42-12.51,2.09-27.27-11-13.14-26.33,33.38-86,28.18-88.73-15.63,9.56-43,66.3-39.28,101.84-42.61a206.31,206.31,0,0,0,73.44-23.32c76.3-40.66,85.65-152.79,21.41-193C207-1.49,102,40.78,73.44,90.71-21.06,225.47,99.18,448.15,192.5,350.18c18-12.7.21,8.58.56,14.13,19.19,6.37,21.22-19.6,27-31.82,5.89,6.1,1.26,19.24-1.26,28.06,6.59,12.53,8.76-26.54,13-32.39,9.4,8.65-1.46,35.89-9.76,42.39,13.19,3.23,13.28-23.23,25-35.5,6.7,11.62-7.67,24.6-14.26,35.13,12.81.19,12.14-18.51,23.73-22.4,5.27,26.37-52.83,39.26-79.07,43C-22.36,403.36-51,102.65,110,23.79,173-10.41,248.4,3.44,305.06,44.08,429,124.49,351.83,356.62,253,345.11ZM139.57,357.73c.64-2.81-8.46-14.51-8.41-5.68,5.2,4.4,4.06,4.37,3,11.76C136.69,363.63,138,360.61,139.57,357.73Zm-10-21.79,1,.43c15-8-5.09-20.37-1.91-10.89C133.41,328.7,132.12,330.31,129.52,335.94Zm19.56-.63c-2.09,1.29-.41,10,4.72,10.55A13.75,13.75,0,0,0,149.08,335.31Z"/><path d="M139.57,357.73c-.75,1.29-1.82,3.34-3.16,5.26-.34.49-1.51.56-2.3.82a19.07,19.07,0,0,1-.33-2.1,1.53,1.53,0,0,1,.37-.85c2.28-3.23,2.13-4.58-1.24-7.07-1.5-1.1-2.58-2.23-1.76-3.91a2.43,2.43,0,0,1,2-.92C136.31,349.61,139.5,354.67,139.57,357.73Z"/><path d="M129.52,335.94a14.87,14.87,0,0,1,1.48-3.47c1.87-2.47,1.66-4-1.05-6-.84-.61-1.95-1.42-2-2.22-.3-2.42,1.3-2.89,4.42-1.45,2.81,1.3,4.25,3.53,3.77,6.09-.6,3.18-1.81,6-5.54,7.43Z"/><path d="M149.08,335.31a18.35,18.35,0,0,1,2.65,3,32.11,32.11,0,0,1,2.08,5.24,7.1,7.1,0,0,1,0,2.3c-1-.24-2.59-.27-2.83-.77a77.77,77.77,0,0,1-3.3-8.24C147.58,336.61,148.29,336.15,149.08,335.31Z"/></g></g></svg>